:FULLY-SPECIFIED
:FORCE-ALL-JOINTS-BE-3DOF
:DEGREES
612
root -4.21581 15.7489 -40.4831 356.522 -74.1774 369.801
lfemur -7.59353 13.3355 -16.3949
ltibia 43.2632 0 0
lfoot -21.6085 29.8987 0
ltoes -22.4666 0 0
rfemur -41.5069 -30.5786 17.2058
rtibia 75.2597 0 0
rfoot -12.2778 -15.0923 0
rtoes 2.40116 0 0
lowerback 11.4786 4.94912 -6.68732
upperback -2.48321 5.4886 -1.22985
thorax -9.65211 2.96608 1.32279
lowerneck 1.83276 -10.9452 -12.0587
upperneck -0.807153 -14.9039 11.6461
head 1.2517 -7.49762 5.08351
lclavicle -4.95595e-14 -9.24349e-15 0
lhumerus -72.2736 -24.1361 105.207
lradius 102.558 0 0
lwrist 56.1074 0 0
lhand 9.93697 57.3523 0
lfingers 7.12502 0 0
lthumb 35.0666 83.8928 0
rclavicle -4.95595e-14 -9.24349e-15 0
rhumerus 26.1646 24.109 -44.8807
rradius 109.658 0 0
rwrist -23.0764 0 0
rhand -19.209 -30.8897 0
rfingers 7.12502 0 0
rthumb 7.1034 -60.7505 0
613
root -4.20479 15.7362 -40.4525 356.531 -74.5146 370.025
lfemur -7.91048 13.4053 -16.5756
ltibia 43.3042 0 0
lfoot -21.7426 30.2441 0
ltoes -22.0814 0 0
rfemur -41.0184 -31.2317 17.7449
rtibia 76.0271 0 0
rfoot -13.0754 -15.9519 0
rtoes 1.62533 0 0
lowerback 11.2036 4.95788 -6.76689
upperback -2.60352 5.50125 -1.29482
thorax -9.62795 2.97741 1.30997
lowerneck 1.68853 -10.8974 -12.0761
upperneck -0.728978 -14.8313 11.6752
head 1.29304 -7.45737 5.08742
lclavicle 2.82274e-14 -1.78906e-15 0
lhumerus -72.2568 -24.0854 105.151
lradius 102.518 0 0
lwrist 55.9946 0 0
lhand 9.62744 57.4343 0
lfingers 7.12502 0 0
lthumb 34.7729 84.0431 0
rclavicle 2.82274e-14 -1.78906e-15 0
rhumerus 26.4411 22.1407 -45.1651
rradius 107.496 0 0
rwrist -24.7102 0 0
rhand -20.8987 -32.2606 0
rfingers 7.12502 0 0
rthumb 5.47211 -62.1699 0
614
root -4.19727 15.7243 -40.4217 356.954 -74.8976 369.829
lfemur -8.19793 13.4685 -16.7395
ltibia 43.4734 0 0
lfoot -21.8694 30.5708 0
ltoes -21.629 0 0
rfemur -40.5972 -31.7949 18.2098
rtibia 76.6982 0 0
rfoot -13.9459 -16.8902 0
rtoes 0.749118 0 0
lowerback 10.9203 4.95912 -6.70357
upperback -2.71428 5.52852 -1.34016
thorax -9.576 2.98824 1.23842
lowerneck 1.54875 -10.8305 -12.0285
upperneck -0.703729 -14.7294 11.7148
head 1.31078 -7.40303 5.08919
lclavicle 3.18801e-14 -1.33186e-14 0
lhumerus -72.2576 -24.0633 105.161
lradius 102.44 0 0
lwrist 55.9679 0 0
lhand 9.17409 57.2102 0
lfingers 7.12502 0 0
lthumb 34.3426 83.9173 0
rclavicle 3.18801e-14 -1.33186e-14 0
rhumerus 26.7648 20.4167 -45.8762
rradius 105.1 0 0
rwrist -26.5484 0 0
rhand -22.7881 -33.6101 0
rfingers 7.12502 0 0
rthumb 3.64773 -63.5586 0
615
root -4.19428 15.712 -40.389 356.935 -75.2845 370.058
lfemur -8.45194 13.5244 -16.8843
ltibia 43.9645 0 0
lfoot -21.9874 30.8747 0
ltoes -21.1161 0 0
rfemur -40.2529 -32.2553 18.5899
rtibia 77.2537 0 0
rfoot -14.8762 -17.8929 0
rtoes -0.214921 0 0
lowerback 10.6208 4.94859 -6.60552
upperback -2.7857 5.53798 -1.47669
thorax -9.45602 2.9832 1.05892
lowerneck 1.37787 -10.7473 -11.9069
upperneck -0.668155 -14.6023 11.7377
head 1.32697 -7.33533 5.0749
lclavicle 2.97183e-14 -5.56597e-15 0
lhumerus -72.1891 -24.1274 105.015
lradius 102.373 0 0
lwrist 55.8718 0 0
lhand 8.76156 57.1342 0
lfingers 7.12502 0 0
lthumb 33.9508 83.9288 0
rclavicle 2.97183e-14 -5.56597e-15 0
rhumerus 27.0366 18.8254 -46.3058
rradius 102.867 0 0
rwrist -28.4456 0 0
rhand -24.5208 -34.8085 0
rfingers 7.12502 0 0
rthumb 1.97436 -64.7791 0
616
root -4.19404 15.6951 -40.3571 357.301 -75.7136 369.916
lfemur -8.6686 13.5721 -17.0078
ltibia 44.7527 0 0
lfoot -22.0948 31.1515 0
ltoes -20.5495 0 0
rfemur -39.9951 -32.6001 18.8745
rtibia 77.6743 0 0
rfoot -15.853 -18.9456 0
rtoes -1.25424 0 0
lowerback 10.3128 4.98507 -6.69108
upperback -2.87916 5.60538 -1.40172
thorax -9.40235 3.02593 1.1922
lowerneck 1.21875 -10.6936 -11.8647
upperneck -0.652777 -14.5121 11.6607
head 1.3375 -7.28534 5.04183
lclavicle -6.31141e-14 1.98785e-15 0
lhumerus -72.178 -24.0693 105.256
lradius 102.244 0 0
lwrist 55.9607 0 0
lhand 7.82303 56.8809 0
lfingers 7.12502 0 0
lthumb 33.0588 83.8687 0
rclavicle -6.31141e-14 1.98785e-15 0
rhumerus 27.2987 17.326 -46.8499
rradius 100.519 0 0
rwrist -30.2236 0 0
rhand -25.4408 -35.1675 0
rfingers 7.12502 0 0
rthumb 1.08587 -65.1445 0
617
root -4.19795 15.6825 -40.3266 357.529 -76.0978 369.917
lfemur -8.84395 13.6106 -17.1078
ltibia 45.8133 0 0
lfoot -22.1902 31.3971 0
ltoes -19.9358 0 0
rfemur -39.8334 -32.8164 19.053
rtibia 77.9408 0 0
rfoot -16.8629 -20.0341 0
rtoes -2.3563 0 0
lowerback 9.99877 4.97556 -6.77873
upperback -2.95664 5.60866 -1.36181
thorax -9.31875 3.03573 1.30412
lowerneck 0.889589 -10.7101 -11.8419
upperneck -0.436939 -14.5172 11.6988
head 1.45608 -7.27783 5.02244
lclavicle 6.90777e-15 1.78906e-15 0
lhumerus -72.1901 -23.937 105.411
lradius 102.184 0 0
lwrist 56.0138 0 0
lhand 7.58752 56.8693 0
lfingers 7.12502 0 0
lthumb 32.8348 83.9043 0
rclavicle 6.90777e-15 1.78906e-15 0
rhumerus 27.5858 16.1792 -47.3554
rradius 98.1988 0 0
rwrist -31.2241 0 0
rhand -26.4547 -35.5448 0
rfingers 7.12502 0 0
rthumb 0.106619 -65.5246 0
618
root -4.20731 15.6701 -40.2972 357.751 -76.5503 369.895
lfemur -8.97407 13.6393 -17.182
ltibia 47.1215 0 0
lfoot -22.2718 31.6074 0
ltoes -19.2819 0 0
rfemur -39.7773 -32.8913 19.1149
rtibia 78.0339 0 0
rfoot -17.8928 -21.144 0
rtoes -3.50855 0 0
lowerback 9.6788 4.99421 -6.8081
upperback -3.02658 5.65837 -1.3254
thorax -9.22058 3.06421 1.37236
lowerneck 0.976048 -10.5158 -11.7402
upperneck -0.673557 -14.2439 11.5936
head 1.32543 -7.14479 5.00723
lclavicle -3.50606e-14 -1.41137e-14 0
lhumerus -72.0878 -23.9793 105.581
lradius 102.027 0 0
lwrist 56.2375 0 0
lhand 7.41731 57.032 0
lfingers 7.12502 0 0
lthumb 32.6728 84.1007 0
rclavicle -3.50606e-14 -1.41137e-14 0
rhumerus 27.7345 15.0467 -47.6943
rradius 96.0344 0 0
rwrist -31.667 0 0
rhand -26.7493 -35.6688 0
rfingers 7.12502 0 0
rthumb -0.177981 -65.6485 0
619
root -4.22255 15.6629 -40.2688 358.169 -77.0191 369.643
lfemur -9.05503 13.6571 -17.2281
ltibia 48.6526 0 0
lfoot -22.3381 31.7782 0
ltoes -18.5943 0 0
rfemur -39.6924 -32.8601 19.1612
rtibia 77.9207 0 0
rfoot -18.9292 -22.2612 0
rtoes -4.69843 0 0
lowerback 9.38828 5.00007 -6.73781
upperback -3.08294 5.69981 -1.3125
thorax -9.11019 3.0818 1.36162
lowerneck 0.814393 -10.4224 -11.6251
upperneck -0.626413 -14.1036 11.5468
head 1.3376 -7.07026 4.97457
lclavicle 9.11925e-15 -2.84262e-14 0
lhumerus -72.0599 -24.0653 105.689
lradius 101.956 0 0
lwrist 56.2008 0 0
lhand 7.68065 57.0868 0
lfingers 7.12502 0 0
lthumb 32.9233 84.1031 0
rclavicle 9.11925e-15 -2.84262e-14 0
rhumerus 27.8785 14.1633 -48.014
rradius 93.9523 0 0
rwrist -31.8708 0 0
rhand -27.0211 -35.8136 0
rfingers 7.12502 0 0
rthumb -0.440509 -65.7929 0
620
root -4.24165 15.6579 -40.2431 358.775 -77.4849 369.236
lfemur -9.08289 13.6632 -17.244
ltibia 50.3817 0 0
lfoot -22.3875 31.9053 0
ltoes -17.8799 0 0
rfemur -39.4459 -32.7697 19.2954
rtibia 77.5934 0 0
rfoot -19.9591 -23.3711 0
rtoes -5.91342 0 0
lowerback 9.07907 5.0309 -6.65502
upperback -3.15378 5.77704 -1.29696
thorax -9.00664 3.11662 1.34111
lowerneck 0.667942 -10.3535 -11.4894
upperneck -0.564485 -13.9997 11.5235
head 1.35644 -7.01445 4.94404
lclavicle -5.97099e-14 4.41302e-14 0
lhumerus -72.2022 -24.2036 105.981
lradius 101.953 0 0
lwrist 55.9806 0 0
lhand 8.51765 57.4734 0
lfingers 7.12502 0 0
lthumb 33.7191 84.3191 0
rclavicle -5.97099e-14 4.41302e-14 0
rhumerus 27.9689 13.2675 -48.5349
rradius 91.8148 0 0
rwrist -31.9946 0 0
rhand -27.0847 -35.8762 0
rfingers 7.12502 0 0
rthumb -0.501868 -65.8554 0
621
root -4.26529 15.6549 -40.221 358.969 -77.9093 369.245
lfemur -9.24877 13.6374 -17.2387
ltibia 52.2842 0 0
lfoot -22.4183 31.9846 0
ltoes -17.1453 0 0
rfemur -39.0504 -32.6246 19.511
rtibia 77.0708 0 0
rfoot -20.969 -24.4596 0
rtoes -7.14095 0 0
lowerback 8.81373 5.05014 -6.66288
upperback -3.22459 5.81965 -1.31409
thorax -8.93229 3.13839 1.33848
lowerneck 0.551915 -10.2828 -11.4844
upperneck -0.529788 -13.9005 11.6647
head 1.38452 -6.96212 4.98309
lclavicle -4.68386e-14 -1.21259e-14 0
lhumerus -72.1518 -24.3914 106.081
lradius 101.903 0 0
lwrist 55.5484 0 0
lhand 9.21735 57.6867 0
lfingers 7.12502 0 0
lthumb 34.3837 84.3844 0
rclavicle -4.68386e-14 -1.21259e-14 0
rhumerus 28.0303 12.6378 -48.6109
rradius 89.9851 0 0
rwrist -32.6141 0 0
rhand -27.201 -36.0025 0
rfingers 7.12502 0 0
rthumb -0.614195 -65.9814 0
622
root -4.29149 15.6517 -40.1999 359.155 -78.363 369.252
lfemur -9.73022 13.5624 -17.2231
ltibia 54.3353 0 0
lfoot -22.4289 32.012 0
ltoes -16.3972 0 0
rfemur -38.5181 -32.4293 19.801
rtibia 76.3713 0 0
rfoot -21.9458 -25.5123 0
rtoes -8.36847 0 0
lowerback 8.70564 5.03254 -6.79002
upperback -3.39991 5.78656 -1.2648
thorax -9.07875 3.13707 1.46418
lowerneck 0.439681 -10.1511 -11.4054
upperneck -0.346913 -13.7233 11.5962
head 1.42565 -6.86978 4.95057
lclavicle 5.51876e-14 1.53064e-14 0
lhumerus -72.202 -24.0517 106.185
lradius 101.884 0 0
lwrist 54.6509 0 0
lhand 10.127 58.0897 0
lfingers 7.12502 0 0
lthumb 35.2468 84.5877 0
rclavicle 5.51876e-14 1.53064e-14 0
rhumerus 28.1005 12.389 -49.0355
rradius 88.1164 0 0
rwrist -33.2351 0 0
rhand -27.5618 -36.2556 0
rfingers 7.12502 0 0
rthumb -0.962706 -66.2331 0
623
root -4.3224 15.6506 -40.1821 359.08 -78.8601 369.588
lfemur -10.503 13.442 -17.1982
ltibia 56.5101 0 0
lfoot -22.338 31.9131 0
ltoes -15.6425 0 0
rfemur -37.8615 -32.1884 20.1587
rtibia 75.5136 0 0
rfoot -22.8761 -26.515 0
rtoes -9.58346 0 0
lowerback 8.41991 5.01936 -6.92304
upperback -3.49639 5.77352 -1.25406
thorax -9.0331 3.14071 1.56955
lowerneck 0.310761 -10.0247 -11.4813
upperneck -0.322223 -13.5486 11.7778
head 1.45244 -6.77923 5.01802
lclavicle 8.02096e-14 -2.50469e-14 0
lhumerus -72.188 -23.9668 106.237
lradius 101.908 0 0
lwrist 53.984 0 0
lhand 10.8255 58.3809 0
lfingers 7.12502 0 0
lthumb 35.9089 84.7198 0
rclavicle 8.02096e-14 -2.50469e-14 0
rhumerus 28.2139 12.1962 -49.0854
rradius 86.633 0 0
rwrist -34.5946 0 0
rhand -28.2478 -36.5113 0
rfingers 7.12502 0 0
rthumb -1.62526 -66.4849 0
624
root -4.35692 15.6511 -40.1691 358.75 -79.2994 370.185
lfemur -11.5427 13.2801 -17.1647
ltibia 58.784 0 0
lfoot -22.0756 31.6277 0
ltoes -14.8877 0 0
rfemur -37.0932 -31.9065 20.5773
rtibia 74.5163 0 0
rfoot -23.7466 -27.4533 0
rtoes -10.7733 0 0
lowerback 8.19096 5.04513 -7.08325
upperback -3.6132 5.79451 -1.34106
thorax -9.03861 3.15916 1.57364
lowerneck 0.126889 -9.99197 -11.3186
upperneck -0.205988 -13.4977 11.8125
head 1.50225 -6.74842 4.99383
lclavicle 3.70236e-15 -1.76918e-14 0
lhumerus -72.3182 -24.1799 106.366
lradius 101.893 0 0
lwrist 52.7392 0 0
lhand 11.6398 58.2408 0
lfingers 7.12502 0 0
lthumb 36.6799 84.3874 0
rclavicle 3.70236e-15 -1.76918e-14 0
rhumerus 28.1053 12.0147 -49.1269
rradius 85.4045 0 0
rwrist -36.1041 0 0
rhand -29.1765 -36.9303 0
rfingers 7.12502 0 0
rthumb -2.52217 -66.8952 0
625
root -4.39503 15.6523 -40.1538 358.757 -79.8223 370.438
lfemur -12.8253 13.0803 -17.1234
ltibia 61.1322 0 0
lfoot -21.6573 31.1728 0
ltoes -14.1397 0 0
rfemur -36.2254 -31.5881 21.0501
rtibia 73.3981 0 0
rfoot -24.5442 -28.3129 0
rtoes -11.9256 0 0
lowerback 7.97076 5.07066 -7.1022
upperback -3.7379 5.83313 -1.41157
thorax -9.04493 3.17923 1.51406
lowerneck -0.170026 -10.0239 -11.2476
upperneck 0.0197689 -13.5358 11.9469
head 1.62635 -6.75748 4.9975
lclavicle -1.1778e-14 -1.0138e-14 0
lhumerus -72.4858 -24.3288 106.501
lradius 101.972 0 0
lwrist 52.0513 0 0
lhand 11.7862 58.059 0
lfingers 7.12502 0 0
lthumb 36.8185 84.1702 0
rclavicle -1.1778e-14 -1.0138e-14 0
rhumerus 27.9433 11.9802 -49.1234
rradius 84.4771 0 0
rwrist -37.5265 0 0
rhand -30.0349 -37.2285 0
rfingers 7.12502 0 0
rthumb -3.35114 -67.182 0
